<?xml version="1.0" encoding="utf-8"?>
<!-- Generator: Adobe Illustrator 19.0.0, SVG Export Plug-In . SVG Version: 6.00 Build 0)  -->
<svg version="1.1" id="Шар_1" xmlns="http://www.w3.org/2000/svg" xmlns:xlink="http://www.w3.org/1999/xlink" x="0px" y="0px"
	 viewBox="0 0 107 87.5" style="enable-background:new 0 0 107 87.5;" xml:space="preserve">
<style type="text/css">
	.st0{fill:#FFFFFF;}
	.st1{fill:none;stroke:#FFFFFF;stroke-width:5;}
</style>
<g>
	<path id="Forma_1" class="st0" d="M53.5,0c-13.8,0-25,11.2-25,25c0,3.5,0.7,7,2.2,10.2C37,48.9,48.9,63.4,52.5,67.5
		c0.5,0.6,1.4,0.7,1.9,0.2c0.1-0.1,0.1-0.1,0.2-0.2c3.5-4.1,15.5-18.6,21.8-32.3c1.5-3.2,2.2-6.7,2.2-10.2C78.5,11.2,67.3,0,53.5,0z
		 M53.5,38c-7.2,0-13-5.8-13-13s5.8-13,13-13s13,5.8,13,13c0,0,0,0,0,0C66.5,32.2,60.7,38,53.5,38z"/>
	<ellipse id="Эллипс_1" class="st1" cx="53.5" cy="68.5" rx="51" ry="16.5"/>
</g>
</svg>
