<?xml version="1.0" encoding="utf-8"?>
<!-- Generator: Adobe Illustrator 19.0.0, SVG Export Plug-In . SVG Version: 6.00 Build 0)  -->
<svg version="1.1" id="Шар_1" xmlns="http://www.w3.org/2000/svg" xmlns:xlink="http://www.w3.org/1999/xlink" x="0px" y="0px"
	 viewBox="0 0 130 130" style="enable-background:new 0 0 130 130;" xml:space="preserve">
<style type="text/css">
	.st0{fill:#FFFFFF;}
</style>
<path id="Forma_1" class="st0" d="M90.7,32L90.7,32C90.4,19.3,79.8,9,67.1,9H67h-0.3c-5.2,0-9.9,2.7-12.7,7.3c-3,4.7-9.2,6.2-14,3.2
	c-1.3-0.8-2.4-1.9-3.3-3.3C34,11.7,29.2,9,24,9h-0.3h-0.1C10.9,9,0.3,19.3,0,32c-0.1,2.6,0.3,5.2,1.1,7.7l8.4,26.2
	c0,10.3,2.2,25.9,7,36.3l10.8,23.3c0.9,2.7,3.4,4.5,6.2,4.5h0.1c3.6,0,6.6-2.9,6.6-6.6c0-0.2,0-0.3-0.1-0.5
	c-2.1-7.5-6.4-28.6-0.7-36.2c1.4-1.9,3.4-2.8,6-2.8s4.5,0.9,5.9,2.8c5.7,7.6,1.6,28.7-0.5,36.2c0,0.2-0.1,0.3-0.1,0.5
	c0,3.4,2.7,6.4,6,6.7c0.2,0,0.4,0,0.6,0c2.8,0,5.3-1.8,6.2-4.4l10.8-23.4c4.8-10.4,7-26,7-36.2l8.4-26.2
	C90.4,37.2,90.8,34.6,90.7,32z M86.1,38.5L77.6,65c-0.1,0.2-0.1,0.4-0.1,0.6c0,9.8-2,25-6.6,34.9L60,124.1c0,0.1-0.1,0.1-0.1,0.2
	c-0.4,1.2-1.6,2-2.9,1.9c-1.3-0.1-2.4-1.3-2.6-2.7c0.9-3.2,7.5-29-0.2-39.2c-2.1-2.8-5.1-4.3-8.9-4.3s-6.9,1.5-9,4.3
	c-7.7,10.2-0.9,36,0,39.2c-0.1,1.5-1.3,2.6-2.8,2.6c-1.2,0-2.3-0.9-2.7-2.1c0-0.1-0.1-0.1-0.1-0.2l-10.8-23.4
	c-4.2-9.1-6.3-22.5-6.6-32.3c5.2,1.7,17.4,5.1,32.1,5.1c7.6,0,15.2-0.9,22.6-2.6c1-0.2,1.6-1.2,1.4-2.3c-0.2-1-1.2-1.6-2.2-1.4
	c-0.9,0.2-1.8,0.4-2.8,0.6l4.1-10.4c0.4-1-0.1-2.1-1-2.5c-1-0.4-2.1,0.1-2.5,1l0,0l-4.9,12.5c-4.9,0.8-9.8,1.1-14.7,1.1
	c-5,0-10-0.4-15-1.2l-4.9-12.5c-0.4-1-1.5-1.4-2.4-1.1c-1,0.4-1.4,1.5-1.1,2.4l4,10.9c-4.5-0.9-8.9-2-13.2-3.5L4.7,38.5
	c-0.6-2.1-0.9-4.3-0.9-6.5C4,21.4,12.9,12.8,23.6,12.8h0.1H24c3.9,0,7.4,2.1,9.5,5.5c4,6.5,12.6,8.5,19.1,4.5
	c1.8-1.1,3.4-2.7,4.5-4.5c2.1-3.4,5.7-5.5,9.5-5.5h0.3H67c10.7,0,19.6,8.7,19.9,19.3l0,0C87,34.3,86.7,36.4,86.1,38.5z M78.2,34.8
	l3.9-3.9c0.7-0.7,0.7-1.9,0-2.7l-7-7c-0.7-0.7-1.9-0.7-2.7,0l0,0l-3.9,3.9l-3.9-3.9c-0.7-0.7-1.9-0.7-2.7,0l0,0l-7,7
	c-0.7,0.7-0.7,1.9,0,2.7l3.9,3.9L55,38.7c-0.7,0.7-0.7,1.9,0,2.7l0,0l7,7c0.7,0.7,1.9,0.7,2.7,0l3.9-3.9l3.9,3.9
	c0.7,0.7,1.9,0.7,2.7,0l7-7c0.7-0.7,0.7-1.9,0-2.7L78.2,34.8z M63.3,44.4L59,40l2.6-2.6l4.3,4.3L63.3,44.4z M73.8,44.4l-3.9-3.9l0,0
	l0,0l-7-7l0,0l0,0l-3.9-4l4.3-4.3l6.1,6.1c0.7,0.7,1.9,0.8,2.7,0c0.7-0.7,0.8-1.9,0-2.7l0,0l-0.8-0.8l2.6-2.6l4.3,4.3l-3.9,3.9
	c-0.7,0.7-0.7,1.7-0.2,2.5c0,0,0,0,0,0.1l0,0l0.1,0.1l3.9,3.9L73.8,44.4z"/>
<path id="Forma_1_1_" class="st0" d="M128.2,10.9h-9.9c-0.8-0.6-1.7-0.9-2.7-0.9h-5.4c-2.3,0-4.2,1.8-4.2,4.1v28.4
	c0,1,0.4,2,1.1,2.7l2.2,16.4v64.2c0,2.3,2,4.2,4.3,4.2h1.9c2.3,0,4.3-1.8,4.3-4.2l-0.1-63.9c0-0.1,0-0.1,0-0.2l-2.1-15.6
	c1.1-0.6,1.8-1.5,2.1-2.7h8.5c1,0,1.8-0.8,1.8-1.7v-29C130,11.7,129.2,10.9,128.2,10.9z M119.8,14.4h6.6v2.2h-3.3
	c-1,0-1.8,0.7-1.8,1.7s0.7,1.8,1.7,1.8h0.1h3.3v2.1h-3.3c-1,0-1.8,0.7-1.8,1.7s0.7,1.8,1.7,1.8h0.1h3.3v2.1h-3.3
	c-1,0-1.8,0.7-1.8,1.7s0.7,1.8,1.7,1.8h0.1h3.3v2.1h-3.3c-1,0-1.8,0.7-1.8,1.7s0.7,1.8,1.7,1.8h0.1h3.3v3h-6.6L119.8,14.4
	L119.8,14.4z M115.5,126.5h-1.9c-0.4,0-0.7-0.3-0.7-0.7V61.5c0-0.1,0-0.1,0-0.2l-2-14.8c0.7-0.2,1.1-0.9,1.1-1.6
	c0-1-0.8-1.7-1.8-1.7l0,0c-0.3,0-0.6-0.3-0.6-0.6V14.1c0-0.3,0.3-0.6,0.6-0.6l0,0h5.4c0.3,0,0.6,0.3,0.6,0.6l0,0v28.4
	c0,0.3-0.3,0.6-0.6,0.6h-0.1h-0.1l0,0c0,0,0,0-0.1,0h-0.1h-0.1H115c0,0,0,0-0.1,0h-0.1h-0.1c0,0,0,0-0.1,0h-0.1c0,0,0,0-0.1,0
	l-0.1,0.1c0,0,0,0-0.1,0c0,0-0.1,0-0.1,0.1l-0.1,0.1c0,0,0,0-0.1,0.1c0,0,0,0,0,0.1c0,0,0,0-0.1,0.1l-0.1,0.1c0,0,0,0,0,0.1V44v0.1
	v0.1c0,0,0,0,0,0.1v0.1c0,0,0,0,0,0.1v0.1v0.1v0.1V45c0,0,0,0,0,0.1l0,0l2.3,17l0.1,63.8C116.2,126.2,115.9,126.5,115.5,126.5
	L115.5,126.5z"/>
</svg>
