<?xml version="1.0" encoding="utf-8"?>
<!-- Generator: Adobe Illustrator 19.0.0, SVG Export Plug-In . SVG Version: 6.00 Build 0)  -->
<svg version="1.1" id="Шар_1" xmlns="http://www.w3.org/2000/svg" xmlns:xlink="http://www.w3.org/1999/xlink" x="0px" y="0px"
	 viewBox="0 0 130 130" style="enable-background:new 0 0 130 130;" xml:space="preserve">
<style type="text/css">
	.st0{fill:#FFFFFF;}
</style>
<path id="Forma_1" class="st0" d="M90.2,32.4L90.2,32.4C89.8,19.7,79.4,9.6,66.7,9.5h-0.4c-5.2,0.1-10,2.8-12.6,7.2
	c-2.9,4.7-9.1,6.2-13.8,3.3c-1.3-0.8-2.5-1.9-3.3-3.3c-2.7-4.4-7.5-7.2-12.6-7.2h-0.4C10.5,9.5,0,20.1,0,33.1c0,2.4,0.4,4.7,1.1,6.9
	l8.3,26.1c0,10.2,2.2,25.8,7,36.1l10.7,23.2c0.9,2.7,3.3,4.5,6.1,4.5c0.9,0,1.9-0.2,2.7-0.6c0.1,0,0.2-0.1,0.2-0.1
	c0.6-0.3,1.2-0.7,1.7-1.2c1.2-1.2,1.9-2.9,1.9-4.6c0-0.2,0-0.3-0.1-0.5c-2.1-7.5-6.4-28.5-0.6-36.1c1.4-1.9,3.7-2.9,6-2.8
	c2.3-0.1,4.5,0.9,5.9,2.8c5.7,7.5,1.6,28.6-0.5,36c0,0.2-0.1,0.3-0.1,0.5c0,2.4,1.3,4.6,3.4,5.8c0.2,0.1,0.4,0.3,0.6,0.3
	c0.6,0.3,1.3,0.4,1.9,0.5c0.2,0,0.4,0,0.5,0c2.8,0,5.3-1.8,6.2-4.4l10.8-23.3c4.8-10.3,6.9-25.9,6.9-36.1L89.1,40
	C89.9,37.6,90.2,35,90.2,32.4z M45.1,80.3c-3.5-0.1-6.9,1.5-9,4.3c-6.7,9-2.3,29.9-0.6,37c-2.5-8.9-7.2-25.7-8.7-30.6
	c0.6-3.7,2-7.2,4.2-10.2c1.3-1.7,2.9-3.2,4.8-4.3c0.3-0.1,0.5-0.2,0.7-0.4c2.6-1.4,5.6-2.1,8.6-2.1c5.4-0.1,10.6,2.4,13.9,6.7
	c2.3,3.1,3.7,6.7,4.3,10.6c-1.7,5.7-6.9,24.4-9.1,32.3c0,0,0,0,0-0.1c0.9-3.2,7.5-28.9-0.2-39C51.9,81.8,48.6,80.2,45.1,80.3
	L45.1,80.3z M13.8,32.8c0.2-4.7,3.6-8.6,8.3-9.3l-8.2,10.4C13.8,33.5,13.8,33.1,13.8,32.8L13.8,32.8z M25.5,25.1
	c1.3,1.8,2.8,3.5,4.5,4.9L17.3,45.4l-2.2-7L25.5,25.1z M33.1,32.1c2.1,1.2,4.5,2.1,6.9,2.7L20.9,56.7l-2.3-7.1L33.1,32.1z
	 M75.3,28.7L34.2,73c-2.4,1.4-4.5,3.3-6.2,5.5c-1.2,1.6-2.2,3.4-3,5.3c-0.6-3.1-1.1-6.4-1.4-9.6l46.8-50.1
	C72.5,25,74.3,26.6,75.3,28.7L75.3,28.7z M67.5,62.2c0,0.1-0.1,0.2-0.1,0.3L67,65.6c0,0.1,0,0.2,0,0.3V66c0,0.2,0,0.5,0,0.7l-7,9.5
	c-1.6-1.6-3.4-2.9-5.4-3.8L69.9,55L67.5,62.2z M75.9,35.9L72.7,46L50.8,70.9c-1.9-0.5-3.8-0.7-5.7-0.7c-1.1,0-2.3,0.1-3.4,0.2
	L76.3,33C76.3,34,76.2,35,75.9,35.9L75.9,35.9z M65.4,24c0.1-0.2,0.3-0.4,0.5-0.5L65.4,24z M23.3,69.1c0-1.1-0.1-2.2-0.1-3.2
	c0-0.1,0-0.2,0-0.3l-0.5-3.1c0-0.1,0-0.2-0.1-0.3l-0.5-1.4l22.3-25.5c0.2,0,0.4,0,0.6,0c5,0,9.8-1.5,13.8-4.4L23.3,69.1z M85.5,38.9
	l-8.4,26.4C77,65.5,77,65.7,77,65.9c0,9.8-2,24.9-6.6,34.8l-10.8,23.4c0,0.1-0.1,0.1-0.1,0.2c-0.3,1-1.2,1.8-2.3,1.9
	c1.9-6.9,8.3-29.7,9.8-34.6c0-0.1,0.1-0.2,0.1-0.3c0.8-2.9,1.5-5.9,2-8.9c0.2-1-0.4-2-1.4-2.3c-1-0.2-2,0.4-2.3,1.4
	c0,0.1,0,0.2,0,0.2c-0.1,0.8-0.3,1.5-0.4,2.2c-0.7-1.7-1.6-3.4-2.6-4.9l4.4-6c0.4,1,1.5,1.4,2.4,1c0.7-0.3,1.1-0.9,1.2-1.6
	c0.2-2.3,0.3-4.5,0.3-6.6l0.4-2.8l5-15.7l0,0L79.5,37c0.4-1.4,0.6-2.9,0.6-4.3c0-1.4-0.3-2.8-0.8-4.2c0-0.1,0-0.1-0.1-0.2
	c-1.5-3.9-4.7-6.9-8.7-8.2c-0.1,0-0.1,0-0.2-0.1c-1.2-0.3-2.4-0.5-3.6-0.5h-0.4c-1.7,0-3.3,1-4.1,2.5c-5.8,9.4-18.2,12.4-27.7,6.5
	c-2.7-1.6-4.9-3.9-6.5-6.5c-0.9-1.5-2.4-2.4-4.1-2.5h-0.4c-7.4,0-13.4,6.1-13.4,13.5c0,1.3,0.2,2.7,0.6,3.9l0.5,1.6l0,0L19,63.2
	l0.4,2.8c0.1,8.6,1.3,17.2,3.6,25.6l0,0l0,0c1.5,4.9,7.9,27.7,9.8,34.6c-1.1-0.2-2-1-2.3-2c0-0.1,0-0.1-0.1-0.2l-10.8-23.3
	C15,90.8,13,75.7,13,65.9c0-0.2,0-0.4-0.1-0.6L4.6,38.9c-3.2-10.4,2.6-21.5,13-24.8c1.9-0.6,3.9-0.9,5.8-0.9h0.4
	c3.9,0.1,7.5,2.1,9.5,5.5c4,6.5,12.5,8.5,19,4.5c1.8-1.1,3.4-2.7,4.5-4.5c2-3.3,5.6-5.4,9.5-5.5h0.4c10.7,0.1,19.4,8.6,19.7,19.2
	l0,0C86.5,34.7,86.2,36.8,85.5,38.9L85.5,38.9z"/>
<path id="Forma_1_1_" class="st0" d="M129.7,13.2c-0.3-0.4-0.6-0.6-1.1-0.7l-15-2.9c-4.3-0.8-8.6,1.9-9.6,6.2l-7.9-1.5
	c-0.9-0.2-1.8,0.5-2,1.4c-0.2,0.9,0.4,1.8,1.3,2l7.9,1.5c-0.5,3.9,1.8,7.7,5.6,9l-1,3.9c-0.1,0.2-0.1,0.4-0.1,0.5l-7.7,30.2
	c0,0.2-0.1,0.4,0,0.6v0.1v52.2c0,0.9,0.8,1.7,1.7,1.7l0,0h0.7v10.8c0,0.9,0.8,1.7,1.7,1.7l0,0h9.7c0.9,0,1.7-0.8,1.7-1.7v-10.8h0.7
	c0.9,0,1.7-0.8,1.7-1.7l0,0V63.9l3.5-28.6c0-0.1,0-0.1,0.1-0.2c0-0.2,0-0.3,0-0.5l0.5-3.9l3,0.6c0.9,0.2,1.8-0.4,2-1.4l0,0l3-15.5
	C130.1,14.1,130,13.6,129.7,13.2z M112.1,121.9h-6.3v-4.1h6.3V121.9z M105.9,126.6v-1.2h6.3v1.2H105.9z M110.8,34.8l7.1,1.4
	l-3.1,25.7H109l-5.1-0.2L110.8,34.8z M114.6,75.2h-11.1v-3.9h11.1V75.2L114.6,75.2z M114.6,65.5v2.4h-11.1v-2.6h5.5L114.6,65.5z
	 M114.6,114h-11.1V85.9h11.1V114L114.6,114z M103.4,82.5v-3.9h11.1v3.9H103.4z M118.4,32.8l-6.7-1.3l0.7-2.6l0.8,0.2l0,0l0,0
	l5.6,1.1L118.4,32.8z M124,27.7l-3.1-0.6l0,0l-5.5-1l1.4-7.4c0.2-0.9-0.4-1.8-1.4-2c-0.9-0.2-1.8,0.4-2,1.4l0,0l-1.4,7.4l-0.7-0.1
	l0,0l-0.7-0.1c-2.6-0.5-4.4-3.1-3.9-5.7l0.5-2.5c0.5-2.6,3.1-4.4,5.7-3.9l0,0l13.3,2.5L124,27.7z"/>
</svg>
