<?xml version="1.0" encoding="utf-8"?>
<!-- Generator: Adobe Illustrator 19.0.0, SVG Export Plug-In . SVG Version: 6.00 Build 0)  -->
<svg version="1.1" id="Шар_1" xmlns="http://www.w3.org/2000/svg" xmlns:xlink="http://www.w3.org/1999/xlink" x="0px" y="0px"
	 viewBox="0 0 130 130" style="enable-background:new 0 0 130 130;" xml:space="preserve">
<style type="text/css">
	.st0{fill:#1273A1;}
</style>
<path id="Forma_1" class="st0" d="M89.8,39.2c3.9-12.5-3.1-25.8-15.6-29.7c-2.3-0.7-4.6-1.1-7-1.1h-0.4c-5.2,0.1-10,2.8-12.7,7.3
	c-2.9,4.8-9.2,6.2-13.9,3.3c-1.3-0.8-2.5-2-3.3-3.3c-2.7-4.5-7.5-7.2-12.7-7.3h-0.4C10.5,8.4-0.1,19.1,0,32.3c0,2.4,0.4,4.7,1.1,6.9
	l1.8,5.7c0,0,0,0,0,0l6.6,20.6c0,10.3,2.2,26,7,36.5l10.8,23.4c0.9,2.7,3.4,4.5,6.2,4.6h0.1c3.6,0,6.6-3,6.6-6.6c0,0,0,0,0,0
	c0-0.2,0-0.4-0.1-0.5c-2.1-7.5-6.4-28.7-0.6-36.4c1.4-1.9,3.7-3,6.1-2.8c2.3-0.1,4.5,0.9,5.9,2.8c5.8,7.6,1.6,28.8-0.5,36.4
	c0,0.2-0.1,0.3-0.1,0.5c0,3.4,2.6,6.3,6,6.7c0.2,0,0.4,0,0.5,0c2.8,0,5.3-1.8,6.2-4.4L74.4,102c4.8-10.4,7-26.1,7-36.4l7.4-23.1v0
	L89.8,39.2z M3.8,31.6c0.3-10.8,9.1-19.3,19.9-19.4H24c3.9,0.1,7.5,2.1,9.5,5.5c4,6.5,12.6,8.6,19.1,4.5c1.8-1.1,3.4-2.7,4.5-4.5
	c2-3.4,5.6-5.4,9.5-5.5h0.4c11,0.1,19.9,9.1,19.9,20.1c0,2-0.3,3.9-0.9,5.8l-0.6,2c-6.5,0.7-11.7,5.9-12.3,12.4
	c-7.1,0.7-12.4,6.6-12.4,13.7V68c-5.1,0.8-10.3,1.2-15.4,1.3c-1.9,0-3.7-0.1-5.5-0.2c0-5.1-4.2-9.3-9.3-9.3H30v-0.6
	c0-5.1-4.2-9.3-9.3-9.3h-0.8c-0.9-4.3-4.7-7.4-9.1-7.5H6.1l-1.4-4.4C4,36,3.7,33.8,3.8,31.6z M7.3,46.2h3.5c3.1,0,5.5,2.5,5.5,5.6
	c0,1,0.8,1.9,1.9,1.9c0,0,0,0,0,0h2.5c3.1,0,5.5,2.5,5.5,5.6v2.5c0,1,0.8,1.9,1.9,1.9c0,0,0,0,0,0h2.5c2.9,0,5.3,2.3,5.5,5.2
	c-7.9-0.8-15.7-2.4-23.2-5L7.3,46.2z M77.7,64.7c-0.1,0.2-0.1,0.4-0.1,0.6c0,9.9-2,25.1-6.6,35.1l-10.9,23.6c0,0.1-0.1,0.1-0.1,0.2
	c-0.4,1.2-1.6,2-2.9,1.9c-1.4-0.2-2.4-1.3-2.6-2.7c0.9-3.2,7.5-29.2-0.2-39.4c-2.1-2.8-5.4-4.4-8.9-4.3c-3.6-0.1-6.9,1.5-9.1,4.3
	c-7.7,10.3-0.9,36.2,0,39.4c-0.1,1.5-1.3,2.6-2.8,2.6h0c-1.2-0.1-2.3-0.9-2.7-2.1c0-0.1,0-0.1-0.1-0.2l-10.8-23.5
	c-4.2-9.2-6.3-22.7-6.6-32.5c10.4,3.3,21.2,5.1,32.1,5.1c7.6,0,15.2-0.9,22.7-2.6c1-0.3,1.6-1.3,1.4-2.3c-0.2-1-1.2-1.6-2.2-1.4
	c-0.9,0.2-1.8,0.4-2.7,0.6v-1.2c0-5.5,4.4-10,10-10h0.5c1,0,1.9-0.9,1.9-1.9v-0.5c0-4.5,3-8.4,7.2-9.6L77.7,64.7z M11.9,57.1
	c-0.7-0.7-0.7-1.9,0-2.7c0.7-0.7,1.9-0.7,2.7,0c0.7,0.7,0.7,1.9,0,2.7c-0.4,0.4-0.8,0.6-1.3,0.6C12.7,57.6,12.3,57.4,11.9,57.1z
	 M20,63.7c-0.3-0.4-0.5-0.8-0.5-1.3c0-0.5,0.2-1,0.5-1.3c0.7-0.7,1.9-0.7,2.7,0c0.4,0.4,0.5,0.8,0.5,1.3c0,1-0.8,1.9-1.9,1.9
	C20.9,64.2,20.4,64,20,63.7L20,63.7z M74.1,59.7c0.3,0.4,0.5,0.8,0.5,1.3c0,0.5-0.2,1-0.5,1.3c-0.7,0.7-1.9,0.7-2.7,0
	c-0.4-0.4-0.6-0.8-0.6-1.3c0-0.5,0.2-1,0.5-1.3C72.2,59,73.4,59,74.1,59.7L74.1,59.7z"/>
<path id="Forma_1_1_" class="st0" d="M130,64.5C130,64.5,130,64.5,130,64.5c0-0.1,0-0.2,0-0.2c0,0,0,0,0-0.1c0,0,0-0.1,0-0.1
	c0,0,0,0,0,0l-2.7-10.4c-0.2-0.8-0.9-1.3-1.7-1.3h-0.2V28.7c0-0.4-0.1-0.8-0.4-1.1l-6-8l8.2-8.2c0.7-0.7,0.7-1.8,0-2.5
	c-0.7-0.7-1.8-0.7-2.5,0l-9.3,9.3c-0.6,0.6-0.7,1.6-0.2,2.3l6.6,8.8v23.1h-0.2c-0.8,0-1.5,0.5-1.7,1.3l-2.7,10.4c0,0,0,0,0,0
	c0,0,0,0.1,0,0.1c0,0,0,0,0,0.1c0,0,0,0.1,0,0.1c0,0,0,0.1,0,0.1c0,0,0,0,0,0v59c0,3.5,2.9,6.4,6.4,6.4s6.4-2.9,6.4-6.4L130,64.5
	C130,64.5,130,64.5,130,64.5z M126.5,68.2h-5.7v-1.8h5.7V68.2z M120.7,78.9v-1.9h5.7v1.9H120.7z M126.5,82.5v1.9h-5.7v-1.9
	L126.5,82.5L126.5,82.5z M120.7,73.5v-1.9h5.7v1.9H120.7z M120.7,87.8h5.7v1.6h-5.7V87.8z M123.1,55.9h0.5c0,0,0,0,0.1,0
	c0,0,0,0,0.1,0h0.5l1.8,6.9h-4.7L123.1,55.9z M126.5,123.6c0,1.6-1.3,2.9-2.8,2.9s-2.9-1.3-2.9-2.8c0,0,0,0,0,0V93h5.7L126.5,123.6
	L126.5,123.6L126.5,123.6z M121.8,111.5V96.9c0-1,0.8-1.8,1.7-1.8c1,0,1.8,0.8,1.8,1.7c0,0,0,0,0,0v14.6c0,1-0.8,1.8-1.8,1.8
	C122.6,113.3,121.8,112.5,121.8,111.5L121.8,111.5z M121.8,122.8v-4c0-1,0.8-1.8,1.8-1.7c1,0,1.7,0.8,1.7,1.7v4c0,1-0.8,1.8-1.8,1.8
	C122.6,124.6,121.8,123.8,121.8,122.8L121.8,122.8z"/>
</svg>
