<?xml version="1.0" encoding="utf-8"?>
<!-- Generator: Adobe Illustrator 19.0.0, SVG Export Plug-In . SVG Version: 6.00 Build 0)  -->
<svg version="1.1" id="Шар_1" xmlns="http://www.w3.org/2000/svg" xmlns:xlink="http://www.w3.org/1999/xlink" x="0px" y="0px"
	 viewBox="0 0 130 130" style="enable-background:new 0 0 130 130;" xml:space="preserve">
<style type="text/css">
	.st0{fill:#FFFFFF;}
</style>
<path id="Forma_1" class="st0" d="M90.1,35.4c-0.3-12.6-10.8-22.8-23.5-22.8h-0.1h-0.3c-5.1,0-9.8,2.7-12.6,7.2
	c-2.9,4.7-9.1,6.2-13.8,3.2c-1.3-0.8-2.4-1.9-3.2-3.2c-2.8-4.5-7.5-7.2-12.6-7.2h-0.3h-0.1C10.8,12.6,0.3,22.8,0,35.4
	C-0.1,38,0.3,40.6,1.1,43l8.4,26.3l0,0c0,0.1,0.1,0.2,0.1,0.2s0,0,0,0.1s0.1,0.1,0.1,0.2l0,0c0,0.1,0.1,0.1,0.2,0.2l0,0
	c0.1,0.1,0.1,0.1,0.2,0.2l0,0c0.1,0,0.1,0.1,0.2,0.1l0,0c0,0,0.1,0,0.1,0.1C11,70.7,16.9,73,26,74.7v9.2c-1,0.1-1.8,1-1.7,2
	c0.1,0.8,0.6,1.4,1.4,1.6c0.1,0,0.2,0,0.3,0.1v7c-1,0.1-1.8,1-1.7,2c0.1,0.8,0.6,1.4,1.4,1.6c0.1,0,0.2,0,0.3,0.1v7
	c-1,0.1-1.8,1-1.7,2c0.1,0.8,0.6,1.4,1.4,1.6c0.1,0,0.2,0,0.3,0.1v8.6c0,0.3,0,0.6,0.1,0.8v0.1c0,0,0,0.1,0.1,0.1s0,0.1,0.1,0.1
	l5.5,8.9c0.3,0.4,0.7,0.7,1.2,0.8c7.9,1.8,16.2,1.8,24.1,0c0.5-0.1,0.9-0.4,1.2-0.8l5.5-8.9c0.2-0.3,0.3-0.6,0.3-1V109
	c0.1,0,0.2,0,0.3-0.1c1-0.3,1.6-1.3,1.3-2.3c-0.2-0.8-0.8-1.3-1.6-1.4v-7c0.1,0,0.2,0,0.3-0.1c1-0.3,1.6-1.3,1.3-2.3
	c-0.2-0.8-0.8-1.3-1.6-1.4v-7c0.1,0,0.2,0,0.3-0.1c1-0.3,1.6-1.3,1.3-2.3c-0.2-0.8-0.8-1.3-1.6-1.4v-9.2c9.1-1.7,15-4,15.4-4.2l0,0
	c0,0,0,0,0.1,0c0.1-0.1,0.3-0.1,0.4-0.2l0,0l0.1-0.1l0,0l0.1-0.1c0,0,0,0,0.1-0.1c0,0,0,0,0.1-0.1c0,0,0-0.1,0.1-0.1c0,0,0,0,0-0.1
	c0,0,0-0.1,0.1-0.1l0,0c0-0.1,0.1-0.1,0.1-0.2V69l0,0L89,43C89.8,40.6,90.1,38,90.1,35.4z M60.3,117.3l-4.8,7.8
	c-6.9,1.5-14,1.5-20.9,0l-2.8-4.6c4.4,0.8,8.8,1.2,13.3,1.2c2,0,4.1-0.1,6.2-0.3c1-0.1,1.8-1,1.7-2s-1-1.8-2-1.7l0,0
	c-2,0.2-3.9,0.3-5.8,0.3c-5.1,0-10.3-0.6-15.3-1.7V110c5,1.1,10.2,1.6,15.3,1.6s10.3-0.6,15.3-1.6L60.3,117.3L60.3,117.3z
	 M60.3,106.2c-5,1.1-10.2,1.7-15.3,1.7s-10.3-0.6-15.3-1.7v-6.9c5,1.1,10.2,1.6,15.3,1.6s10.3-0.6,15.3-1.6V106.2L60.3,106.2z
	 M60.3,95.4c-5,1.1-10.2,1.7-15.3,1.7s-10.3-0.6-15.3-1.7v-6.9c5,1.1,10.2,1.6,15.3,1.6s10.3-0.6,15.3-1.6V95.4L60.3,95.4z
	 M60.3,84.7c-5,1.1-10.2,1.7-15.3,1.7s-10.3-0.6-15.3-1.7v-9.4c5.1,0.8,10.2,1.2,15.3,1.2s10.2-0.4,15.3-1.2V84.7L60.3,84.7z
	 M85.5,41.9l-8.1,25.5C73,68.9,68.5,70,64,70.9l4-10.4c0.4-1-0.1-2-1.1-2.4s-2,0.1-2.4,1l-4.9,12.5c-4.8,0.7-9.7,1.1-14.6,1.1
	c-5,0-10-0.4-14.9-1.2l-4.9-12.4c-0.4-1-1.5-1.4-2.4-1s-1.4,1.5-1,2.4l4.1,10.3c-4.4-0.9-8.8-2-13.1-3.5L4.6,41.9
	c-0.6-2.1-0.9-4.2-0.9-6.4C4,24.9,12.9,16.3,23.5,16.3h0.1h0.3c3.8,0,7.4,2,9.5,5.4c4,6.5,12.5,8.5,19,4.5c1.8-1.1,3.3-2.6,4.5-4.5
	c2.1-3.4,5.6-5.4,9.5-5.4h0.3h0.1c10.6,0,19.4,8.6,19.7,19.2C86.4,37.7,86.1,39.8,85.5,41.9z"/>
<path id="Forma_1_1_" class="st0" d="M128.2,29.1h-13.3v-4c0-1-0.8-1.8-1.8-1.8h-3.4v-2.5c0-2.5-2-4.5-4.5-4.5h-8.5
	c-2.5,0-4.5,2-4.5,4.5v20.1c0,1.1,0.4,2.2,1.2,3v45.7c0,1.2,0.4,2.3,1.2,3.1c-0.8,1-1.2,2.2-1.2,3.5v6.4c2,2.1,2,5.4,0,7.5v6.4
	c0,1.3,0.4,2.5,1.3,3.5c-0.8,0.9-1.3,2-1.3,3.2v4.9c0,1,0.8,1.8,1.8,1.8h11.6c1,0,1.8-0.8,1.8-1.8v-4.9c0-1.2-0.5-2.4-1.3-3.2
	c0.8-1,1.3-2.2,1.3-3.5v-6.4c-2-2.1-2-5.4,0-7.5v-6.4c0-1.3-0.4-2.5-1.2-3.5c0.8-0.9,1.2-2,1.2-3.1V43.9c0.7-0.8,1.2-1.9,1.2-3v-2.5
	h3.4c1,0,1.8-0.8,1.8-1.8v-4h13.3c1,0,1.8-0.8,1.8-1.8C130,29.9,129.2,29.1,128.2,29.1z M105.1,102.6c0,1.1-0.9,2-2,2H99
	c-1.1,0-2-0.9-2-2v-6.4c0-1.1,0.9-2,2-2h4c1.1,0,2,0.9,2,2L105.1,102.6L105.1,102.6z M105.1,110.2v6.4c0,1.1-0.9,2-2,2h-4
	c-1.1,0-2-0.9-2-2v-6.4c0-1.1,0.9-2,2-2h4.1C104.2,108.2,105.1,109.1,105.1,110.2z M95.9,20.8c0-0.5,0.4-1,0.9-1h8.5
	c0.5,0,0.9,0.4,0.9,1v20.1c0,0.5-0.4,1-0.9,1c-1,0-1.8,0.8-1.8,1.8c0,0.1,0,0.1,0,0.2c0,0,0,0,0,0.1v0.1c0,0,0,0,0,0.1s0,0.1,0,0.1
	s0,0,0,0.1v0.1c0,0,0,0,0,0.1v0.1c0,0,0,0,0,0.1v0.1c0,0,0,0,0,0.1c0,0,0,0.1,0.1,0.1c0,0,0,0,0,0.1s0,0,0.1,0.1l0.1,0.1
	c0,0,0,0,0.1,0.1c0,0,0,0,0.1,0c0,0,0,0,0.1,0.1c0,0,0,0,0.1,0c0,0,0.1,0,0.1,0.1c0,0,0,0,0.1,0l0.1,0.1l0,0c0.1,0,0.1,0,0.2,0.1
	l0,0h0.1c0,0,0,0,0.1,0h0.1v44.2c0,0.6-0.5,1.1-1.1,1.1H98c-0.6,0-1.1-0.5-1.1-1.1V45.4h1.7c1,0,1.8-0.8,1.8-1.8s-0.8-1.8-1.8-1.8
	l0,0h-1.9c-0.5,0-0.9-0.4-0.9-1L95.9,20.8L95.9,20.8L95.9,20.8z M105.1,126.5h-8v-3.1c0-0.7,0.5-1.2,1.2-1.2h5.6
	c0.7,0,1.2,0.6,1.2,1.2C105.1,123.4,105.1,126.5,105.1,126.5z M111.4,34.9h-1.6v-8.1h1.6V34.9z"/>
</svg>
