<?xml version="1.0" encoding="utf-8"?>
<!-- Generator: Adobe Illustrator 19.0.0, SVG Export Plug-In . SVG Version: 6.00 Build 0)  -->
<svg version="1.1" id="Шар_1" xmlns="http://www.w3.org/2000/svg" xmlns:xlink="http://www.w3.org/1999/xlink" x="0px" y="0px"
	 viewBox="0 0 130 130" style="enable-background:new 0 0 130 130;" xml:space="preserve">
<style type="text/css">
	.st0{fill:#FFFFFF;}
</style>
<path id="Forma_1" class="st0" d="M90.4,66.2c6.4-6.3,6.4-16.6,0-23c-6.3-6.4-16.6-6.4-23,0s-6.4,16.6,0,23c3,3.1,7.2,4.8,11.5,4.8
	C83.2,70.9,87.3,69.2,90.4,66.2z M78.9,42.1c4.3,0,8.4,2.2,10.7,5.9H68.2C70.5,44.4,74.5,42.1,78.9,42.1z M66.7,51.8h24.4
	c0.2,1,0.3,2,0.3,3H75.1c-1,0-1.8,0.8-1.9,1.8c0,1,0.8,1.8,1.8,1.9l0,0h15.8c-2.1,6.6-9.1,10.3-15.7,8.2
	C68.8,64.7,65.1,58.2,66.7,51.8L66.7,51.8z M121.9,90.4l-13.7-13.7c-0.7-0.7-1.9-0.7-2.6,0l-1,1l-5.9-5.9c0.1-1.5,0.1-3,0.1-4.3
	l8.2-25.6c0.8-2.4,1.1-5,1-7.5l0,0c-0.3-12.5-10.6-22.5-23-22.5h-0.1h-0.3c-5,0-9.7,2.7-12.4,7.1c-2.9,4.6-9,6.1-13.6,3.2
	c-1.3-0.8-2.4-1.9-3.2-3.2c-2.7-4.4-7.4-7.1-12.4-7.1h-0.3h-0.1c-12.4,0-22.8,10.1-23.1,22.5c-0.1,2.5,0.3,5.1,1,7.5l8.2,25.6
	c0,10,2.1,25.3,6.8,35.4L46,125.7c0.9,2.6,3.3,4.4,6,4.4c0,0,0,0,0.1,0c3.5,0,6.4-2.9,6.4-6.4c0-0.2,0-0.3-0.1-0.5
	c-2.1-7.3-6.3-28-0.6-35.4c1.4-1.9,3.3-2.8,5.9-2.8c2.5,0,4.4,0.9,5.8,2.7c5.6,7.4,1.5,28-0.5,35.3c0,0.2-0.1,0.3-0.1,0.5
	c0,3.3,2.6,6.2,5.9,6.5c0.2,0,0.4,0,0.5,0c2.7,0,5.2-1.7,6.1-4.3L92,102.9c3.4-7.4,5.5-17.5,6.3-26.3l3.7,3.7l-1.1,1.1
	c-0.7,0.7-0.7,1.9,0,2.6l0,0l13.7,13.7c0.7,0.7,1.9,0.7,2.6,0l0,0l4.7-4.7C122.7,92.3,122.7,91.1,121.9,90.4L121.9,90.4z M65.4,68.2
	c-7.5-7.5-7.5-19.5,0-27s19.5-7.5,27,0l0,0c7.5,7.4,7.5,19.5,0.1,27C85,75.7,72.9,75.7,65.4,68.2L65.4,68.2L65.4,68.2z M23.9,40.7
	c-0.6-2-0.9-4.2-0.9-6.3c0.3-10.4,9-18.9,19.4-18.9h0.1h0.3c3.8,0,7.3,2,9.3,5.3c4,6.4,12.3,8.3,18.7,4.4c1.8-1.1,3.3-2.6,4.4-4.4
	c2.1-3.3,5.6-5.3,9.3-5.3h0.3H85c10.4,0,19.1,8.5,19.4,18.9l0,0c0.1,2.1-0.2,4.3-0.9,6.3l-2.6,8.1C97.7,36.7,85.2,29.4,73,32.7
	S53.6,48.4,56.9,60.5c1,3.9,3.1,7.4,5.9,10.3c0.1,0.1,0.2,0.2,0.3,0.3c-4.7,0-9.4-0.4-14-1.2l-4.8-12.2c-0.4-0.9-1.4-1.4-2.4-1
	c-0.9,0.4-1.4,1.4-1,2.4l4,10.1c-4.4-0.8-8.7-2-12.9-3.4L23.9,40.7z M88.6,101.4l-10.6,23c0,0.1-0.1,0.1-0.1,0.2
	c-0.4,1.2-1.6,2-2.8,1.9c-1.3-0.1-2.4-1.3-2.5-2.6c0.8-3.1,7.4-28.4-0.2-38.3c-2.1-2.8-5-4.2-8.7-4.2c-3.8,0-6.7,1.4-8.8,4.2
	c-7.5,10-0.9,35.2,0,38.4c-0.1,1.4-1.3,2.5-2.8,2.5c-1.2,0-2.2-0.8-2.6-2c0-0.1,0-0.1-0.1-0.2l-10.6-22.8c-4.1-8.9-6.2-22-6.5-31.6
	c5,1.6,17,5,31.4,5c1.4,0,2.8,0,4.3-0.1c8.3,4.5,18.6,3.5,25.8-2.7c0.1,0.1,0.2,0.2,0.3,0.3l0.9,0.9C94.3,82.3,92.3,93.5,88.6,101.4
	L88.6,101.4z M115.9,93.8l-11.1-11.1l1.1-1.1l0,0l0,0l1-1L118,91.7L115.9,93.8z"/>
</svg>
