<?xml version="1.0" encoding="utf-8"?>
<!-- Generator: Adobe Illustrator 19.0.0, SVG Export Plug-In . SVG Version: 6.00 Build 0)  -->
<svg version="1.1" id="Шар_1" xmlns="http://www.w3.org/2000/svg" xmlns:xlink="http://www.w3.org/1999/xlink" x="0px" y="0px"
	 viewBox="0 0 130 130" style="enable-background:new 0 0 130 130;" xml:space="preserve">
<style type="text/css">
	.st0{fill:#1273A1;}
</style>
<path id="Forma_1" class="st0" d="M101.4,19.6L86.9,16L83.3,1.4C83,0.4,82-0.2,81,0.1c-0.7,0.2-1.2,0.7-1.4,1.4l-2.9,11.5
	c-3.3-1.7-6.9-2.5-10.6-2.5l-0.3,0c-5.1,0-9.8,2.7-12.6,7.2c-2.9,4.7-9.1,6.1-13.8,3.2c-1.3-0.8-2.4-1.9-3.2-3.2
	c-2.8-4.5-7.5-7.1-12.6-7.2l-0.3,0h-0.1c-12.6,0-23,10.2-23.3,22.7c-0.1,2.6,0.3,5.1,1.1,7.6l8.3,25.9c0,10.1,2.2,25.6,6.9,35.8
	l10.7,23c0.9,2.6,3.3,4.4,6.1,4.5c3.6,0,6.5-2.8,6.5-6.4c0,0,0,0,0-0.1c0-0.2,0-0.3-0.1-0.5c-2.1-7.4-6.3-28.3-0.6-35.8
	c1.4-1.9,3.4-2.8,6-2.8c2.5,0,4.4,0.9,5.8,2.7c5.7,7.5,1.6,28.3-0.5,35.7c0,0.2-0.1,0.3-0.1,0.5c0,3.4,2.7,6.3,5.9,6.6
	c0.2,0,0.4,0,0.5,0c2.8,0,5.2-1.8,6.1-4.4l10.7-23.1c4.7-10.3,6.9-25.7,6.9-35.8l8.3-25.9c0.8-2.5,1.1-5,1-7.6
	c-0.1-2.3-0.5-4.6-1.2-6.7l13-3.2c1-0.2,1.6-1.3,1.4-2.3C102.6,20.3,102.1,19.8,101.4,19.6z M85,23.5c-0.7,0.1-1.3,0.7-1.4,1.4
	l-2.1,8.4l-0.7-2.8c-0.2-1-1.2-1.6-2.2-1.4c-1,0.2-1.6,1.2-1.4,2.2c0,0,0,0,0,0l2.5,10.1c0.2,1,1.3,1.6,2.3,1.4
	c0.7-0.2,1.2-0.7,1.4-1.4l2.5-10.1c0.4,2.8,0.1,5.6-0.7,8.3l-8.4,26.2c-0.1,0.2-0.1,0.4-0.1,0.6c0,9.7-2,24.7-6.6,34.5l-10.7,23.2
	c0,0.1-0.1,0.1-0.1,0.2c-0.4,1.2-1.6,2-2.9,1.9c-1.3-0.1-2.4-1.3-2.5-2.7c0.9-3.2,7.4-28.7-0.2-38.7c-2.1-2.8-5.1-4.2-8.8-4.2
	c-3.8,0-6.8,1.4-8.9,4.3c-7.6,10.1-0.9,35.6,0,38.8c-0.1,1.4-1.3,2.6-2.8,2.5c-1.2-0.1-2.3-0.9-2.6-2c0-0.1-0.1-0.1-0.1-0.2
	l-10.7-23.1c-4.2-9-6.2-22.3-6.5-31.9c5.1,1.7,17.2,5,31.7,5c7.5,0,15-0.9,22.4-2.5c1-0.2,1.6-1.2,1.4-2.2s-1.2-1.6-2.2-1.4
	c-0.9,0.2-1.8,0.4-2.7,0.6l4.1-10.3c0.4-1-0.1-2-1-2.4c-1-0.4-2,0.1-2.4,1l-4.9,12.4c-4.8,0.7-9.7,1.1-14.5,1.1
	c-5,0-9.9-0.4-14.8-1.2l-4.9-12.4c-0.4-1-1.5-1.4-2.4-1c-1,0.4-1.4,1.5-1,2.4l4,10.2c-4.4-0.8-8.8-2-13-3.5L4.6,39.6
	c-0.6-2.1-0.9-4.2-0.9-6.4C4,22.7,12.9,14.1,23.4,14.2l0.3,0c3.8,0,7.3,2,9.4,5.4c4,6.4,12.5,8.4,18.9,4.4c1.8-1.1,3.3-2.6,4.4-4.4
	c2.1-3.4,5.6-5.4,9.4-5.4l0.3,0h0.1c3,0,6,0.7,8.7,2l-13.5,3.4c-1,0.2-1.6,1.3-1.4,2.3c0.2,0.7,0.7,1.2,1.4,1.4l11.8,2.9
	c1,0.2,2-0.4,2.2-1.4c0.2-1-0.4-2-1.3-2.2l-4.6-1.1l8.3-2.1c0.7-0.1,1.3-0.7,1.4-1.4l2.1-8.4l2.1,8.3c0.1,0.7,0.7,1.3,1.4,1.4
	l8.4,2.1L85,23.5z"/>
<path id="Forma_1_1_" class="st0" d="M123.9,2c-2.6-1.1-5.6-0.8-8.3,0.7c-2.6,1.4-4.7,3.9-5.9,6.9c-2.3,5.8-0.6,12.1,3.9,14.7v24.4
	h-0.2c-0.8,0-1.6,0.6-1.8,1.4l-2.8,10.8c0,0,0,0,0,0c0,0,0,0.1,0,0.1c0,0,0,0,0,0.1c0,0,0,0.1,0,0.1c0,0,0,0.1,0,0.1c0,0,0,0,0,0
	v60.9c0,3.6,3,6.6,6.6,6.6s6.6-3,6.6-6.6V61.4c0,0,0,0,0,0c0,0,0-0.1,0-0.1c0,0,0-0.1,0-0.1c0,0,0,0,0-0.1c0,0,0-0.1,0-0.1
	c0,0,0,0,0,0l-2.8-10.8c-0.2-0.8-0.9-1.4-1.8-1.4h-0.2V25.5c0.3,0,0.5,0,0.8,0c0.7,0,1.4-0.1,2.1-0.2c0.1,0,0.2,0,0.3-0.1
	c0,0,0.1,0,0.1,0c3.5-0.9,6.8-3.8,8.4-7.9C131.5,11,129.2,4.1,123.9,2z M112.5,76.2v-1.9h5.9v1.9C118.4,76.2,112.5,76.2,112.5,76.2z
	 M118.4,79.9v1.9h-5.9v-1.9H118.4z M112.5,70.7v-1.9h5.9v1.9H112.5z M112.5,85.4h5.9V87h-5.9V85.4L112.5,85.4z M118.4,65.1h-5.9
	v-1.9h5.9V65.1z M118.4,122.3c0,1.6-1.3,3-3,3c-1.6,0-3-1.3-3-3c0,0,0,0,0,0V90.7h5.9V122.3L118.4,122.3z M117.9,59.6H113l1.9-7.1
	h0.5c0,0,0,0,0.1,0s0,0,0.1,0h0.5L117.9,59.6z M125.9,15.2l-3-9.7C125.9,6.9,127.2,11.1,125.9,15.2z M121.1,21.2l-2.4-7.9
	c-0.3-1-1.3-1.5-2.3-1.2c-1,0.3-1.5,1.3-1.2,2.3c0,0,0,0,0,0l2.3,7.5c-0.5,0-0.9-0.2-1.4-0.3c-3.4-1.4-4.8-6.1-3-10.6
	c0.9-2.2,2.4-4,4.3-5.1c0.5-0.3,1-0.5,1.5-0.6l4.4,14.2C122.7,20.1,121.9,20.7,121.1,21.2L121.1,21.2z M113.6,109.8V94.7
	c0-1,0.8-1.8,1.8-1.8c1,0,1.8,0.8,1.8,1.8v15.1c0,1-0.8,1.8-1.8,1.8C114.4,111.6,113.6,110.8,113.6,109.8
	C113.6,109.8,113.6,109.8,113.6,109.8z M113.6,121.5v-4.1c0-1,0.8-1.8,1.8-1.8c1,0,1.8,0.8,1.8,1.8c0,0,0,0,0,0v4.1
	c0,1-0.8,1.8-1.8,1.8C114.4,123.3,113.6,122.5,113.6,121.5z"/>
</svg>
