<svg xmlns="http://www.w3.org/2000/svg" width="408" height="390" viewBox="0 0 408 390">
  <defs>
    <style>
      .cls-1 {
        fill: #7fc0e3;
        fill-rule: evenodd;
      }
    </style>
  </defs>
  <path id="Forma_1" data-name="Forma 1" class="cls-1" d="M424.786,3376.72A108.624,108.624,0,0,0,342.794,3340c-24.795,0-51.537,14.75-71.079,25.52-7.114,3.93-16.842,9.29-19.717,9.65-2.863-.35-12.541-5.7-19.637-9.63-19.491-10.78-46.184-25.54-71.155-25.54a108.626,108.626,0,0,0-81.993,36.72C59.085,3399.24,48,3428.89,48,3460.21c0,44.73,16.069,108.34,42.985,170.17,11.974,27.5,24.721,51.27,36.86,68.73,14.45,20.79,26.85,30.89,37.91,30.89,4.908,0,13.9-2.08,18.937-16.02,4.9-13.55,9.307-29.09,13.981-45.59,12.369-43.64,27.762-97.96,52.544-97.96h1.565c11.018,0,20.881,9.44,30.151,28.85,9.183,19.22,16.165,44.79,22.926,69.54,4.468,16.36,8.69,31.82,13.433,45.12,4.939,13.86,13.824,15.93,18.688,15.93,11,0,23.393-10.26,37.874-31.35,12.108-17.65,24.882-41.65,36.938-69.42,27.054-62.33,43.2-125.46,43.2-168.89,0-31.32-11.085-60.97-31.212-83.49m-89.64,32.11c-0.254-.02-25.875-1.25-49.2-7.42-10.517-2.78-22.952-8.38-22.952-10.04,0-1.61,13.509-9.47,16.768-11.27,17.945-9.9,42.52-23.45,63.03-23.45,60.436,0,96.549,52.65,96.549,103.56,0,40.65-16.027,102.83-41.828,162.26-11.472,26.42-24.041,50.09-35.393,66.63-13.1,19.08-21.573,24.63-24.141,24.12-1.577-.31-1.772-1.43-3-4.87-4.535-12.72-8.678-27.88-13.062-43.94-6.945-25.43-14.126-51.73-23.957-72.31-12.316-25.78-27.1-38.32-45.18-38.32h-1.565c-17.422,0-31.86,12.44-44.135,38.01-9.8,20.42-17.239,46.67-24.433,72.06-4.586,16.18-8.916,31.47-13.619,44.47-1.038,2.87-1.358,4.74-3.275,5.03-1.5.23-7.916-.27-24.233-23.74-11.36-16.34-23.884-39.73-35.266-65.88-25.661-58.94-41.6-121.6-41.6-163.52,0-50.91,36.115-103.56,96.55-103.56,15.709,0,36.353,7.15,55.222,19.14,2.767,1.76,6.664,4.75,10.432,7.65,1.5,1.15,2.986,2.29,4.365,3.33a189,189,0,0,0,17.42,11.77,91.71,91.71,0,0,0,10.67,5.64,121.3,121.3,0,0,0,47.659,9.67c16.814,0,28.122-2.99,28.234-3.02,0,0,2.53-.67,2.45-1.33S335.146,3408.83,335.146,3408.83Z" transform="translate(-48 -3340)"/>
</svg>
